<svg xmlns="http://www.w3.org/2000/svg" width="26.657" height="21.664" viewBox="0 0 26.657 21.664">
  <path id="Path_62" data-name="Path 62" d="M165.657,85.3a10.937,10.937,0,0,1-3.141.861,5.487,5.487,0,0,0,2.4-3.026,10.944,10.944,0,0,1-3.473,1.327,5.474,5.474,0,0,0-9.319,4.988,15.526,15.526,0,0,1-11.272-5.714,5.475,5.475,0,0,0,1.692,7.3,5.447,5.447,0,0,1-2.477-.684c0,.023,0,.046,0,.069a5.472,5.472,0,0,0,4.387,5.363,5.482,5.482,0,0,1-2.47.094,5.474,5.474,0,0,0,5.109,3.8,10.972,10.972,0,0,1-6.792,2.341,11.094,11.094,0,0,1-1.3-.077,15.479,15.479,0,0,0,8.383,2.457,15.264,15.264,0,0,0,10.481-3.971,15.937,15.937,0,0,0,5.079-11.589q0-.356-.016-.708A11.112,11.112,0,0,0,165.657,85.3Z" transform="translate(-139 -82.733)" fill="#6fa456"/>
</svg>
