<svg xmlns="http://www.w3.org/2000/svg" width="86.8" height="91.078" viewBox="0 0 86.8 91.078">
  <g id="Group_51" data-name="Group 51" transform="translate(-507.832 -126.929)">
    <g id="Group_48" data-name="Group 48" transform="translate(507.832 126.929)">
      <g id="Group_47" data-name="Group 47" transform="translate(0)">
        <g id="Group_46" data-name="Group 46">
          <path id="Path_37" data-name="Path 37" d="M543.434,244.365c.083.114.165.226.243.34-.275,1.362-.53,2.6-.81,3.84-.058.253-.141.513-.231.79s-.177.55-.25.846c-.214.875-.416,1.792-.618,2.8-.073.365-.129.727-.182,1.08-.029.178-.056.355-.083.533-.53.28-1.136.591-1.751.892s-1.257.606-1.887.9c-.593.282-1.187.564-1.778.856-.374.182-.749.357-1.128.537-1.06.5-2.157,1.024-3.21,1.6a22.686,22.686,0,0,0-2,1.284c-.27.19-.54.379-.82.562-.564-.088-1.126-.173-1.69-.258l-1.367-.209c-.333-.051-.666-.1-1-.143-.52-.07-1.06-.146-1.578-.233-.722-.124-1.457-.277-2.169-.426l-.321-.066c-.221-.36-.44-.732-.652-1.106-.122-.209-.236-.423-.35-.635-.141-.263-.28-.52-.43-.776-.319-.547-.589-.995-.863-1.413-.37-.567-.812-1.235-1.284-1.889a.6.6,0,0,1-.139-.382,45.687,45.687,0,0,1,.482-7.22,46.267,46.267,0,0,1,1.187-4.968c.212-.732.4-1.474.591-2.193.3-1.16.615-2.359,1-3.492a31.763,31.763,0,0,1,3.288-7.239l.2.034c1.053.187,2.145.379,3.227.54.571.088,1.15.151,1.712.216.513.058,1.026.119,1.539.192.445.061.883.146,1.347.236.319.061.64.124.961.178.681.114,1.364.224,2.045.336.494.078.987.16,1.481.241.309.049.613.1.922.16.452.078.907.158,1.362.229,1.06.163,2.123.319,3.149.457-.044.314-.09.623-.134.936-.139.948-.282,1.931-.365,2.913a15.559,15.559,0,0,0,.669,5.265,11.865,11.865,0,0,0,1.269,3.251C543.157,243.983,543.3,244.177,543.434,244.365Zm-9.644-2.191a2.171,2.171,0,1,0-2.473,1.819A2.172,2.172,0,0,0,533.79,242.174Zm-8.36-1.277a2.171,2.171,0,1,0-2.473,1.819A2.169,2.169,0,0,0,525.429,240.9Z" transform="translate(-514.833 -203.865)" fill="#679441"/>
          <path id="Path_38" data-name="Path 38" d="M541.147,158.242l-.275,0a2.892,2.892,0,0,1-.411-.007c-1.055-.141-2.14-.3-3.229-.467-.443-.068-.883-.146-1.325-.224-.314-.056-.627-.109-.941-.163-.494-.08-.99-.163-1.486-.241-.678-.109-1.354-.219-2.033-.336-.309-.051-.618-.109-.922-.17-.464-.088-.946-.18-1.43-.25-.528-.075-1.058-.136-1.588-.2-.547-.063-1.106-.129-1.658-.209-.829-.129-1.668-.268-2.495-.413.08-.095.151-.192.231-.287a5.892,5.892,0,0,0,.559-.778c.068-.107.136-.212.209-.316.061-.088.122-.175.182-.265.146-.219.284-.421.43-.6,1.145-1.413,2.478-3.054,3.806-4.65a6.714,6.714,0,0,1,.849-.815c.688-.584,1.435-1.194,2.283-1.87.474-.377.946-.732,1.408-1.053.243-.173.486-.345.729-.52a21.029,21.029,0,0,1,1.97-1.316c.661-.37,1.32-.749,1.979-1.126a69.988,69.988,0,0,1,6.262-3.317c.5-.221.995-.452,1.488-.683.849-.394,1.724-.8,2.59-1.15a30.432,30.432,0,0,1,3.349-1.065c1.782-.474,3.149-.793,4.428-1.033a26.432,26.432,0,0,1,6.551-.484c.435.027.875.044,1.311.058.8.027,1.544.053,2.286.146.924.119,1.78.233,2.6.357,1.043.16,2.023.336,2.994.55a31.457,31.457,0,0,1,5.4,1.882,20.932,20.932,0,0,1,5.009,2.9c.55.443,1.109.875,1.668,1.308,1.007.781,2.043,1.588,3.008,2.424a24.375,24.375,0,0,1,6.1,8.278c.737,1.568,1.5,3.188,2.123,4.815.384,1,.7,2.065,1.012,3.093.143.484.289.968.443,1.449.061.192.124.382.187.574.107.321.212.642.306.968.143.5.292,1.021.387,1.534.053.287.109.574.165.863a22.71,22.71,0,0,1,.413,2.685c.178,2.459.26,4.934.316,7.03a41.361,41.361,0,0,1-.829,8.927,47.1,47.1,0,0,1-1.432,5.523c-1.114,3.482-2.4,7.02-3.811,10.515a27.981,27.981,0,0,1-1.851,3.553c-.749,1.274-1.607,2.629-2.7,4.263a19.514,19.514,0,0,1-3.2,3.485c-.815.734-1.683,1.461-2.658,2.218-.705.55-1.5,1.114-2.422,1.724a23.609,23.609,0,0,1-2.347,1.41c-1.578.793-3.443,1.712-5.333,2.536a24.145,24.145,0,0,1-5.744,1.442l-1.209.2c-1.218.207-2.478.418-3.713.554-1.391.153-2.8.195-4.253.226-1.629.034-3.076.027-4.421-.032l-.4-.017a27.644,27.644,0,0,1-5.311-.55c-.776-.182-1.561-.413-2.322-.637-.328-.1-.657-.192-.987-.287-.243-.071-.489-.136-.734-.2a22.6,22.6,0,0,1-2.167-.666,27.879,27.879,0,0,1-4.346-2.193c-.664-.4-1.328-.79-1.992-1.182-.968-.571-1.967-1.16-2.935-1.753a33.489,33.489,0,0,1-8.92-7.378l-.122-.151a36.622,36.622,0,0,1-2.254-3.037c-.348-.547-.725-1.075-1.092-1.588-.226-.316-.455-.637-.674-.961a9.347,9.347,0,0,1-1.24-2.721l-.255-.861a28.672,28.672,0,0,1-1.24-5.389,65.73,65.73,0,0,1-.333-7.256c.148.221.3.447.428.647.255.389.513.812.812,1.33.139.241.272.486.4.73.122.226.243.45.37.671.265.469.542.934.822,1.384a1.24,1.24,0,0,0,.81.537l.52.109c.727.151,1.478.306,2.227.435.185.029.37.063.554.09.365.056.729.107,1.085.156.326.044.654.09.98.139l1.357.207,1.855.285a1.429,1.429,0,0,0,.958-.214c.331-.216.654-.443.98-.669a20.819,20.819,0,0,1,1.841-1.187c1.009-.554,2.082-1.065,3.117-1.559.382-.182.759-.36,1.138-.542q.883-.43,1.766-.846.956-.452,1.9-.912c.732-.355,1.437-.722,2.031-1.036a1.3,1.3,0,0,0,.647-.88c.051-.277.092-.554.136-.832.053-.348.1-.676.168-1,.2-.987.394-1.88.6-2.733.056-.231.131-.469.214-.722.1-.3.2-.613.272-.944.3-1.306.557-2.6.846-4.027a1.486,1.486,0,0,0-.2-1.051c-.117-.185-.246-.36-.372-.535s-.241-.331-.338-.486A10.385,10.385,0,0,1,542,168.628a13.874,13.874,0,0,1-.613-4.659c.073-.927.212-1.877.345-2.8.063-.413.124-.829.177-1.245.022-.134.041-.27.063-.418l.192-1.255Z" transform="translate(-513.36 -132.435)" fill="#679441"/>
          <path id="Path_39" data-name="Path 39" d="M594.625,169.6a43.216,43.216,0,0,1-.849,9.311,49.014,49.014,0,0,1-1.486,5.727c-1.128,3.526-2.427,7.106-3.859,10.639a28.761,28.761,0,0,1-1.962,3.786c-.771,1.306-1.644,2.687-2.755,4.35a21.015,21.015,0,0,1-3.487,3.813c-.846.764-1.751,1.515-2.755,2.3-.739.576-1.571,1.167-2.536,1.8a25.035,25.035,0,0,1-2.527,1.513c-1.6.8-3.49,1.734-5.418,2.575a25.355,25.355,0,0,1-6.167,1.566c-.4.066-.8.131-1.2.2-1.243.209-2.529.426-3.813.569-1.459.16-2.921.2-4.411.236-1.666.036-3.147.027-4.533-.032l-.4-.015a38.822,38.822,0,0,1-4.282-.333c-.455-.071-.909-.156-1.364-.263-.824-.195-1.634-.43-2.415-.661-.326-.095-.649-.19-.973-.282-.238-.068-.479-.134-.717-.2a24.421,24.421,0,0,1-2.334-.722,29.287,29.287,0,0,1-4.623-2.33c-.659-.394-1.318-.785-1.984-1.175-.973-.574-1.979-1.167-2.962-1.77a35.054,35.054,0,0,1-9.379-7.782l-.119-.151a37.689,37.689,0,0,1-2.361-3.186c-.326-.511-.674-1-1.043-1.515-.231-.328-.467-.657-.693-.99a11.187,11.187,0,0,1-1.481-3.224c-.083-.285-.165-.569-.25-.854a30.743,30.743,0,0,1-1.306-5.719,66.286,66.286,0,0,1-.3-9.348,55.972,55.972,0,0,1,.734-6.772c.051-.435.119-.895.2-1.374.129-.917.282-1.855.462-2.823.209-1.136.511-2.24.8-3.307.1-.382.2-.764.306-1.145.362-1.362.737-2.77,1.213-4.136a24.478,24.478,0,0,1,3.1-6.653c.068-.1.139-.192.209-.287.134-.175.265-.355.392-.54a1.423,1.423,0,0,1,.233-.265,17.828,17.828,0,0,1,1.2-1.534,4.677,4.677,0,0,0,.391-.557c.08-.126.161-.25.243-.372.058-.083.114-.165.17-.248.161-.236.326-.484.523-.725,1.153-1.418,2.488-3.062,3.82-4.667a8.429,8.429,0,0,1,1.065-1.038c.7-.588,1.459-1.211,2.322-1.9.5-.4,1-.778,1.5-1.121.236-.165.472-.336.708-.5a22.4,22.4,0,0,1,2.142-1.423q.985-.551,1.965-1.119a70.98,70.98,0,0,1,6.422-3.4c.489-.216.975-.445,1.461-.671.868-.406,1.768-.827,2.687-1.189a31.294,31.294,0,0,1,3.546-1.131c1.829-.486,3.232-.815,4.557-1.063a28.077,28.077,0,0,1,6.989-.511c.421.024.841.039,1.265.053.8.029,1.622.058,2.446.163,2.15.272,3.954.535,5.751.934a32.778,32.778,0,0,1,5.7,1.977,22.564,22.564,0,0,1,5.43,3.152c.545.435,1.1.863,1.646,1.291,1.024.79,2.082,1.612,3.086,2.483a26.47,26.47,0,0,1,6.541,8.852c.754,1.607,1.53,3.259,2.176,4.944.409,1.063.734,2.157,1.053,3.217.143.477.284.951.435,1.425.058.182.119.367.18.552.109.343.224.686.326,1.033.148.518.316,1.106.426,1.7.053.282.107.564.16.844a24.278,24.278,0,0,1,.445,2.9C594.486,164.98,594.567,167.482,594.625,169.6Zm-2.6,8.976a41.36,41.36,0,0,0,.829-8.927c-.056-2.1-.139-4.572-.316-7.03a22.722,22.722,0,0,0-.413-2.685c-.056-.289-.112-.576-.165-.863-.095-.513-.243-1.031-.387-1.534-.095-.326-.2-.647-.306-.968-.063-.192-.126-.382-.187-.574-.153-.481-.3-.965-.443-1.449-.309-1.029-.627-2.094-1.012-3.093-.625-1.627-1.386-3.246-2.123-4.815a24.377,24.377,0,0,0-6.1-8.278c-.965-.837-2-1.644-3.008-2.424-.559-.433-1.119-.866-1.668-1.308a20.933,20.933,0,0,0-5.009-2.9,31.458,31.458,0,0,0-5.4-1.882c-.97-.214-1.95-.389-2.994-.55-.819-.124-1.675-.238-2.6-.357-.742-.092-1.491-.119-2.286-.146-.435-.015-.875-.032-1.311-.058a26.433,26.433,0,0,0-6.551.484c-1.279.241-2.646.559-4.428,1.033a30.436,30.436,0,0,0-3.349,1.065c-.866.345-1.741.756-2.59,1.15-.494.231-.99.462-1.488.683a69.977,69.977,0,0,0-6.262,3.317c-.659.377-1.318.756-1.979,1.126a21.025,21.025,0,0,0-1.97,1.316c-.243.175-.486.348-.729.52-.462.321-.934.676-1.408,1.053-.849.676-1.6,1.286-2.283,1.87a6.714,6.714,0,0,0-.849.815c-1.328,1.6-2.66,3.237-3.806,4.65-.146.18-.285.382-.43.6-.061.09-.122.178-.182.265-.073.1-.141.209-.209.316a5.9,5.9,0,0,1-.559.778c-.08.095-.151.192-.231.287.827.146,1.666.285,2.495.413.552.08,1.111.146,1.658.209.53.061,1.06.122,1.588.2.484.071.965.163,1.43.25.3.061.613.119.922.17.678.117,1.354.226,2.033.336.5.078.992.161,1.486.241.314.053.627.107.941.163.443.078.883.156,1.325.224,1.089.17,2.174.326,3.229.467a2.892,2.892,0,0,0,.411.007l.275,0,1.021.01L536.448,154c-.022.148-.041.285-.063.418-.054.416-.114.832-.178,1.245-.134.922-.272,1.872-.345,2.8a13.873,13.873,0,0,0,.613,4.659,10.383,10.383,0,0,0,1.065,2.782c.1.156.209.309.338.486s.255.35.372.535a1.486,1.486,0,0,1,.2,1.051c-.289,1.43-.55,2.721-.846,4.027-.075.331-.175.644-.272.944-.083.253-.158.491-.214.722-.209.854-.4,1.746-.6,2.733-.066.323-.114.652-.168,1-.044.277-.085.554-.136.832a1.3,1.3,0,0,1-.647.88c-.593.314-1.3.681-2.031,1.036q-.945.46-1.9.912-.883.416-1.765.846c-.379.182-.756.36-1.138.542-1.036.494-2.108,1-3.117,1.559a20.809,20.809,0,0,0-1.841,1.187c-.326.226-.649.452-.98.669a1.429,1.429,0,0,1-.958.214l-1.855-.285-1.357-.207c-.326-.049-.654-.095-.98-.139-.355-.049-.72-.1-1.085-.156-.185-.027-.37-.061-.554-.09-.749-.129-1.5-.285-2.227-.435l-.52-.109a1.241,1.241,0,0,1-.81-.537c-.28-.45-.557-.914-.822-1.384-.126-.221-.248-.445-.37-.671-.131-.243-.265-.489-.4-.73-.3-.518-.557-.941-.812-1.33-.131-.2-.28-.426-.428-.647a65.73,65.73,0,0,0,.333,7.256,28.672,28.672,0,0,0,1.24,5.389l.255.861a9.348,9.348,0,0,0,1.24,2.721c.219.323.447.644.674.961.367.513.744,1.041,1.092,1.588a36.614,36.614,0,0,0,2.254,3.037l.122.151a33.49,33.49,0,0,0,8.92,7.378c.968.593,1.967,1.182,2.935,1.753.664.392,1.328.783,1.992,1.182a27.884,27.884,0,0,0,4.346,2.193,22.614,22.614,0,0,0,2.167.666c.246.068.491.134.734.2.331.095.659.19.987.287.761.224,1.547.455,2.322.637a27.644,27.644,0,0,0,5.311.55l.4.017c1.345.058,2.792.066,4.421.032,1.449-.032,2.862-.073,4.253-.226,1.235-.136,2.495-.348,3.713-.554l1.209-.2a24.147,24.147,0,0,0,5.744-1.442c1.889-.824,3.755-1.744,5.333-2.536a23.609,23.609,0,0,0,2.347-1.41c.924-.61,1.717-1.175,2.422-1.724.975-.756,1.843-1.483,2.658-2.218a19.516,19.516,0,0,0,3.2-3.485c1.089-1.634,1.948-2.989,2.7-4.263a27.988,27.988,0,0,0,1.851-3.553c1.415-3.494,2.7-7.033,3.811-10.515A47.1,47.1,0,0,0,592.025,178.573Zm-55.349-10.8c-.078-.114-.16-.226-.243-.34-.136-.187-.277-.382-.411-.6a11.863,11.863,0,0,1-1.269-3.251,15.561,15.561,0,0,1-.669-5.265c.083-.982.226-1.965.365-2.913.044-.314.09-.623.134-.936-1.026-.139-2.089-.294-3.149-.457-.455-.071-.909-.151-1.362-.229-.309-.056-.613-.112-.922-.16-.494-.08-.987-.163-1.481-.241-.681-.112-1.364-.221-2.045-.336-.321-.053-.642-.117-.961-.178-.464-.09-.9-.175-1.347-.236-.513-.073-1.026-.134-1.539-.192-.562-.066-1.141-.129-1.712-.216-1.082-.16-2.174-.353-3.227-.54l-.2-.034a31.763,31.763,0,0,0-3.288,7.239c-.389,1.133-.7,2.332-1,3.492-.187.72-.379,1.461-.591,2.193a46.267,46.267,0,0,0-1.187,4.968,45.694,45.694,0,0,0-.481,7.22.6.6,0,0,0,.139.382c.472.654.914,1.323,1.284,1.889.275.418.545.866.863,1.413.151.255.289.513.43.776.114.212.229.426.35.635.212.374.43.747.652,1.106l.321.066c.713.148,1.447.3,2.169.426.518.088,1.058.163,1.578.233.336.046.669.092,1,.143l1.367.209c.564.085,1.126.17,1.69.258.28-.182.55-.372.819-.562a22.686,22.686,0,0,1,2-1.284c1.053-.579,2.15-1.1,3.21-1.6.379-.18.754-.355,1.128-.537.591-.292,1.184-.574,1.778-.856.63-.3,1.269-.6,1.887-.9s1.221-.613,1.751-.892c.027-.178.053-.355.083-.533.054-.353.109-.715.182-1.08.2-1.009.4-1.926.618-2.8.073-.3.163-.571.25-.846s.173-.537.231-.79C536.146,170.366,536.4,169.131,536.676,167.769Z" transform="translate(-507.832 -126.929)" fill="#0a0b0a"/>
          <path id="Path_40" data-name="Path 40" d="M570.533,274.217a2.171,2.171,0,1,1-2.473,1.819A2.172,2.172,0,0,1,570.533,274.217Z" transform="translate(-553.395 -238.382)" fill="#0a0b0a"/>
          <path id="Path_41" data-name="Path 41" d="M536.152,268.966a2.171,2.171,0,1,1-2.473,1.819A2.169,2.169,0,0,1,536.152,268.966Z" transform="translate(-527.374 -234.406)" fill="#0a0b0a"/>
        </g>
      </g>
    </g>
    <g id="Group_49" data-name="Group 49" transform="translate(544.033 154.169)">
      <path id="Path_42" data-name="Path 42" d="M677.114,244.735a4.869,4.869,0,0,1-1.535,3.061,3.883,3.883,0,0,1-3.28.836q-.329-.05-.984-.188t-.984-.188q-.354-.054-.4.25-.058.378-.1,1.136t-.1,1.129q-.029.189-.2.163-.5-.077-1.5-.258t-1.5-.258a.213.213,0,0,1-.2-.275q.139-.912.447-2.735t.447-2.735q.394-2.579.606-5.455l.009-.116q.007-.158.275-.151.653.016,2.838.349,1.289.2,2.467.41a4.546,4.546,0,0,1,2.951,1.7A4.262,4.262,0,0,1,677.114,244.735Zm-3.3-.369a1.69,1.69,0,0,0-1.572-2.2q-1.314-.2-1.4-.063a13.511,13.511,0,0,0-.347,1.889q-.039.255-.094.755t-.094.755q-.025.165,1.453.39A1.6,1.6,0,0,0,673.816,244.366Z" transform="translate(-663.989 -238.949)" fill="#1a1818"/>
      <path id="Path_43" data-name="Path 43" d="M719.621,255.7a10.821,10.821,0,0,1-.338,1.276,5.008,5.008,0,0,1-.45,1.184.309.309,0,0,1-.295.115,2,2,0,0,1-.243-.062q-.587-.174-3.487-.616-.632-.1-1.88-.3t-1.872-.294q-.271-.042-.235-.28.14-.92.525-2.748t.525-2.748q.143-.937.435-3.506.076-.661.21-1.977l.009-.116q.012-.192.234-.158.608.093,1.823.312t1.823.312q.6.092,1.812.243t1.812.243q.427.065.444.4.012.2-.048,1.165t-.091,1.176a.151.151,0,0,1-.191.147c-.033-.005-.09-.016-.171-.035q-2.158-.514-3.9-.78-.435-.066-.565.124a2.6,2.6,0,0,0-.138.626,1.173,1.173,0,0,0,.051.765.714.714,0,0,0,.51.237q.082.013.322.037t.4.048q1.035.158,2.1.262l.458.028a4.114,4.114,0,0,1,.449.035.173.173,0,0,1,.168.219,12.127,12.127,0,0,0-.34,1.234,13.286,13.286,0,0,0-.267,1.3c-.016.109-.1.152-.263.128l-.727-.2q-.461-.121-2.128-.375l-.871-.133q-.337-.051-.419.1-.014.04-.086.508a2.443,2.443,0,0,0-.041.818q.092.333,1,.53l1.2.183q.435.067,1.306.12t1.3.118Q719.667,255.408,719.621,255.7Z" transform="translate(-697.659 -243.886)" fill="#1a1818"/>
      <path id="Path_44" data-name="Path 44" d="M758.65,265.4q-.022.148-.237.174a9.523,9.523,0,0,1-1.538-.168,10.545,10.545,0,0,1-1.5-.3.449.449,0,0,1-.3-.424,3.176,3.176,0,0,0-.242-1.331,18.264,18.264,0,0,0-2.192-.394,6.559,6.559,0,0,0-1.5-.153,2.281,2.281,0,0,0-.446.831q-.261.658-.491.682a13.987,13.987,0,0,1-1.883-.22q-1.257-.192-1.22-.43.033-.213,2.658-4.965,2.844-5.138,3.1-5.654.146-.3.278-.277.222.034.679.146t.688.147q.222.034.658.071t.649.07q.156.024.246.315.271.924,1.446,6.273Q758.684,265.177,758.65,265.4Zm-4.681-8.373q-.228.335-.823,1.48a8.613,8.613,0,0,0-.673,1.435q-.023.148.468.24.252.055.835.144.542.083.62-.04a.325.325,0,0,0,.034-.113,8.094,8.094,0,0,0-.15-1.553A11.749,11.749,0,0,0,753.969,257.026Z" transform="translate(-725.119 -249.41)" fill="#1a1818"/>
      <path id="Path_45" data-name="Path 45" d="M666.944,307.374a3.533,3.533,0,0,1-1.327,2.361q-1.251.978-3.953.565-.205-.031-.59-.1l-.583-.089a28.186,28.186,0,0,1-3.587-.674.254.254,0,0,1-.2-.291q.134-.879.509-2.646t.51-2.654q.146-.953.448-3.6.078-.677.218-2.034l.009-.116q.016-.157.287-.149t1.907.258q2.62.4,3.061.484a6.448,6.448,0,0,1,2.881,1.113,2.878,2.878,0,0,1,.871,2.831,2.18,2.18,0,0,1-.453.981,4.343,4.343,0,0,1-.677.687,2.01,2.01,0,0,1-.352.266q-.009.058.186.213a2.246,2.246,0,0,1,.744,1.181A3.252,3.252,0,0,1,666.944,307.374Zm-2.826-5.164a.926.926,0,0,0-.563-1.044,4.873,4.873,0,0,0-1.279-.321q-.887-.135-.907,0-.024.156-.1.468t-.1.468q-.125.821,0,.941a3.431,3.431,0,0,0,1.032.233Q663.964,303.221,664.118,302.211Zm-.455,4.629a1,1,0,0,0-.463-1.1,3.653,3.653,0,0,0-1.256-.36,3.885,3.885,0,0,0-1.162-.1,5.588,5.588,0,0,0-.3,2.08,3.226,3.226,0,0,0,1.167.284,3.9,3.9,0,0,0,1.27.051A.937.937,0,0,0,663.663,306.84Z" transform="translate(-656.701 -283.603)" fill="#1a1818"/>
      <path id="Path_46" data-name="Path 46" d="M714.694,313.523a6.089,6.089,0,0,1-2.291,4.046,5.989,5.989,0,0,1-8.433-1.3,6.491,6.491,0,0,1,1.31-8.576,5.93,5.93,0,0,1,8.419,1.286A6.112,6.112,0,0,1,714.694,313.523Zm-3.11-.492a3.124,3.124,0,0,0-.428-2.209,2.62,2.62,0,0,0-3.964-.572,3.3,3.3,0,0,0-.686,4.165,2.678,2.678,0,0,0,3.991.559A3.081,3.081,0,0,0,711.583,313.032Z" transform="translate(-691.662 -290.052)" fill="#1a1818"/>
      <path id="Path_47" data-name="Path 47" d="M764.345,316.027q-.025.164-.206.137-.312-.048-2.454-.5-.367,2.07-.492,2.892-.148.969-.367,2.928t-.367,2.928q-.024.156-.1.186a.993.993,0,0,1-.236.006,11.971,11.971,0,0,1-1.456-.155,11.509,11.509,0,0,1-1.477-.293.244.244,0,0,1-.191-.29q.148-.969.526-2.9t.526-2.9q.1-.641.371-2.869-1.668-.086-2.645-.236c-.088-.014-.127-.047-.119-.1a4.823,4.823,0,0,1,.212-.615q.219-.555.254-.676.084-.382.176-.763.151-.608.291-.586l.114.026a33.584,33.584,0,0,0,3.908.773q.739.113,2.751.26l1.089.082a.456.456,0,0,1,.186.049c.014.016.017.071.008.165q-.034.221-.11.614-.083.433-.111.613a4.973,4.973,0,0,0-.039.612A4.994,4.994,0,0,1,764.345,316.027Z" transform="translate(-731.591 -294.408)" fill="#1a1818"/>
      <path id="Path_48" data-name="Path 48" d="M795.31,327.6a3.671,3.671,0,0,1-1.841,2.644,6.071,6.071,0,0,1-3.2.881.967.967,0,0,1-.108-.008q-.189-.029-.661-1.282a5.045,5.045,0,0,1-.434-1.508c.009-.06.056-.092.141-.1a8.768,8.768,0,0,0,1.647-.219,1.373,1.373,0,0,0,1.047-1.134,1.957,1.957,0,0,0-.377-1.276q-.8-1.265-.862-1.4a3.385,3.385,0,0,1-.278-1.976,3.007,3.007,0,0,1,1.77-2.285,6.3,6.3,0,0,1,2.948-.643c.061,0,.108.008.141.013q.123.019.167.227.122.632.663,2.32a.2.2,0,0,1,.012.086.129.129,0,0,1-.169.117,1.671,1.671,0,0,1-.218-.059,1.685,1.685,0,0,0-.235-.061,1.97,1.97,0,0,0-1.076.113.977.977,0,0,0-.667.789,2.173,2.173,0,0,0,.4,1.322q.843,1.474.882,1.547A3.339,3.339,0,0,1,795.31,327.6Z" transform="translate(-756.873 -299.755)" fill="#1a1818"/>
    </g>
    <g id="Group_50" data-name="Group 50" transform="translate(542.492 185.227)">
      <path id="Path_49" data-name="Path 49" d="M657.727,366.962c-.315-.3-.65-.38-.875-.2a2.65,2.65,0,0,1-.655.343c-.43.178-.917.381-1.05.893-.254.977-.8.915-1.673.732a.765.765,0,0,0-.254,0,.927.927,0,0,1-.142.007.387.387,0,0,1,.037-.161c.023-.059.051-.117.078-.175a2.188,2.188,0,0,0,.115-.275l.045-.026a.355.355,0,0,0,.211-.244.366.366,0,0,0-.115-.295.831.831,0,0,0-.721-.309.992.992,0,0,0-.753.5l-.17.3a11.642,11.642,0,0,0-1.4,3.223,1.682,1.682,0,0,0,1.163,1.966,2.54,2.54,0,0,0,.4.095,3.188,3.188,0,0,0,2.97-1.237l.174-.246-.407-.055c-.069-.009-.133-.017-.2-.028a5.23,5.23,0,0,0-1.2-.015,6.125,6.125,0,0,1-.862.019c-.107-.007-.308-.022-.363-.091a.212.212,0,0,1-.014-.149,4.492,4.492,0,0,1,.588-1.572c.085-.14.238-.159.482-.178a1.623,1.623,0,0,0,.41-.068c.115-.04.232-.074.349-.109.186-.056.379-.114.565-.19.134-.056.22-.074.259-.057.019.009.07.05.13.24a1.527,1.527,0,0,0,.794.959,1.205,1.205,0,0,0,.987.009,2.611,2.611,0,0,0,1.595-1.8A1.8,1.8,0,0,0,657.727,366.962Zm-1.284,2.1h0a.615.615,0,0,1-.137.065.229.229,0,0,1-.01-.124.91.91,0,0,1,.518-.846,1.034,1.034,0,0,0,.137-.068A.965.965,0,0,1,656.443,369.06Z" transform="translate(-650.365 -366.667)"/>
      <path id="Path_50" data-name="Path 50" d="M782,385.953a.914.914,0,0,0-1.276.163c-.359.434-.741.865-1.111,1.281a19.783,19.783,0,0,0-2.717,3.583l-.24.44.467-.183a11.024,11.024,0,0,0,4.409-3.009c.056-.064.114-.128.172-.191a2.965,2.965,0,0,0,.641-.912A.917.917,0,0,0,782,385.953Z" transform="translate(-745.943 -381.122)"/>
      <path id="Path_51" data-name="Path 51" d="M716.376,378.209l.151-.163-.189-.116c-.05-.031-.094-.063-.134-.093a.615.615,0,0,0-.33-.156.839.839,0,0,1-.622-.208.8.8,0,0,1-.073-.631.433.433,0,0,0-.161-.463.688.688,0,0,0-.7.049,1.091,1.091,0,0,0-.451.676c-.109.37-.214.642-.579.762a.541.541,0,0,0-.4.426.5.5,0,0,0,.278.472c.177.107.158.158.082.371l-.155.443c-.176.5-.352,1.008-.521,1.514-.089.267-.328.977.414,1.248a1.045,1.045,0,0,0,.195.051.669.669,0,0,0,.4-.053,1.132,1.132,0,0,0,.5-.714l.013-.039c.258-.773.526-1.572.722-2.38.106-.438.218-.618.631-.6A1.161,1.161,0,0,0,716.376,378.209Z" transform="translate(-697.363 -373.959)"/>
      <path id="Path_52" data-name="Path 52" d="M684,382.17c-.59.2-.634.545-.567.8a.516.516,0,0,0,.448.418,1.443,1.443,0,0,0,.446-.023,22.409,22.409,0,0,0,3.028-.715l.489-.151-.474-.192A4.637,4.637,0,0,0,684,382.17Z" transform="translate(-675.374 -378.208)"/>
      <path id="Path_53" data-name="Path 53" d="M767.52,385.357a.671.671,0,0,0-.724-.1.588.588,0,0,0-.346.672,4.128,4.128,0,0,0,.968,1.83l.024.02a1.175,1.175,0,0,0,.448.208.412.412,0,0,0,.22-.022.552.552,0,0,0,.28-.423A3.032,3.032,0,0,0,767.52,385.357Z" transform="translate(-738.208 -380.687)"/>
      <path id="Path_54" data-name="Path 54" d="M703.939,386.779l-.034.012h0a1.89,1.89,0,0,0-.976.839c-.214.343-.407.7-.593,1.052l-.141.263c-.068.125-.273.506.022.741a.464.464,0,0,0,.223.1.812.812,0,0,0,.57-.211,2.964,2.964,0,0,0,.707-.868c.088-.142.171-.276.275-.417l.122-.2q.183-.3.365-.6a.524.524,0,0,1,.067-.073.384.384,0,0,0,.091-.548A.575.575,0,0,0,703.939,386.779Z" transform="translate(-689.491 -381.83)"/>
      <path id="Path_55" data-name="Path 55" d="M726.165,390.569c-.179-.39-.368-.775-.557-1.161-.112-.228-.223-.456-.333-.685l-.165.079h0l.161-.085c-.091-.19-.26-.542-.684-.407a.616.616,0,0,0-.43.692,4.087,4.087,0,0,0,1.106,2.136l.044.037a1.253,1.253,0,0,0,.434.182.48.48,0,0,0,.4-.1c.249-.208.107-.511.039-.656Z" transform="translate(-706.209 -383.024)"/>
      <path id="Path_56" data-name="Path 56" d="M775.976,386.978a.365.365,0,0,0,.237-.28,2.528,2.528,0,0,0-.072-1.992.725.725,0,0,0-.759-.444.625.625,0,0,0-.6.641,2.427,2.427,0,0,0,.767,1.916.609.609,0,0,0,.295.168A.3.3,0,0,0,775.976,386.978Z" transform="translate(-744.529 -379.98)"/>
      <path id="Path_57" data-name="Path 57" d="M751.486,393.764a3.205,3.205,0,0,0-1.427,1.811l-.127.352.355-.116a3.387,3.387,0,0,0,1.35-.93c.141-.138.275-.269.418-.387a.741.741,0,0,1,.085-.056.538.538,0,0,0,.286-.312.359.359,0,0,0-.061-.281C752.26,393.685,752.007,393.464,751.486,393.764Z" transform="translate(-725.72 -387.062)"/>
      <path id="Path_58" data-name="Path 58" d="M741.665,371.63c-.228-.006-.616.081-.657.721a1.863,1.863,0,0,0,.622,1.366l.17.187.124-.22a2.358,2.358,0,0,0,.319-1.336C742.232,372.154,742.2,371.644,741.665,371.63Z" transform="translate(-718.964 -370.423)"/>
      <path id="Path_59" data-name="Path 59" d="M735.251,371.955l-.028-.021a.618.618,0,0,0-.817.106.992.992,0,0,0-.14,1.2.714.714,0,0,0,.507.451.478.478,0,0,0,.2-.011c.348-.094.371-.451.385-.664l.006-.086a1.314,1.314,0,0,1,.04-.193A.7.7,0,0,0,735.251,371.955Z" transform="translate(-713.761 -370.571)"/>
      <path id="Path_60" data-name="Path 60" d="M746.561,389.664a.431.431,0,0,0-.458-.11.392.392,0,0,0-.274.423,2.239,2.239,0,0,0,.414,1.047l.022.023a.627.627,0,0,0,.292.16.286.286,0,0,0,.124-.007.366.366,0,0,0,.229-.26A1.636,1.636,0,0,0,746.561,389.664Z" transform="translate(-722.611 -383.969)"/>
      <path id="Path_61" data-name="Path 61" d="M751.166,390.627a.249.249,0,0,0,.078,0,.276.276,0,0,0,.206-.185,1.4,1.4,0,0,0,.08-1.1.468.468,0,0,0-.451-.335.413.413,0,0,0-.433.375,1.348,1.348,0,0,0,.307,1.105A.377.377,0,0,0,751.166,390.627Z" transform="translate(-726.25 -383.577)"/>
    </g>
  </g>
</svg>
