<svg xmlns="http://www.w3.org/2000/svg" width="124.191" height="131.257" viewBox="0 0 124.191 131.257">
  <g id="Group_44" data-name="Group 44" transform="translate(-47.405 -59.282) rotate(9)">
    <g id="Group_43" data-name="Group 43" transform="translate(74 48.3)">
      <g id="Group_40" data-name="Group 40" transform="translate(0)">
        <path id="Path_15" data-name="Path 15" d="M535.8,554.791c-.473-2.619-1.049-5.709-1.746-8.77a30.812,30.812,0,0,0-1.1-3.512c-.121-.338-.242-.676-.36-1.016-.251-.723-.572-1.422-.854-2.037-.19-.412-.4-.817-.6-1.223-.11-.216-.221-.433-.328-.651-.276-.559-.542-1.121-.809-1.684-.6-1.256-1.212-2.555-1.92-3.8-1.123-1.97-2.4-3.872-3.639-5.725a33.209,33.209,0,0,0-9.8-9.752c-1.411-.889-2.88-1.71-4.3-2.5-.764-.427-1.531-.853-2.289-1.292a28.313,28.313,0,0,0-7.34-2.881,41.287,41.287,0,0,0-7.452-1.377c-2.307-.153-4.6-.138-7.318-.069-1.041.026-2.071.147-3.068.264-.527.062-1.053.124-1.581.172a35.321,35.321,0,0,0-8.581,1.959c-1.6.559-3.278,1.234-5.456,2.184a40.039,40.039,0,0,0-4.188,2.075c-1.071.626-2.109,1.319-3.112,1.988-.559.373-1.119.747-1.685,1.109a89.2,89.2,0,0,0-7.332,5.438q-1.109.885-2.226,1.76a28.611,28.611,0,0,0-2.392,2.172c-.26.255-.52.51-.782.761-.544.519-1.1,1.082-1.645,1.674-.94,1.017-1.766,1.933-2.524,2.8a10.664,10.664,0,0,0-1.125,1.491c-1.351,2.245-2.7,4.541-3.858,6.518-.2.337-.356.675-.513,1-.054.114-.107.227-.163.34-.081.168-.158.338-.233.509a5.677,5.677,0,0,1-.381.764,22.611,22.611,0,0,0-1.2,2.134,1.828,1.828,0,0,0-.242.375c-.12.252-.25.5-.381.744-.07.131-.14.263-.208.395a30.866,30.866,0,0,0-2.585,8.848c-.331,1.786-.53,3.607-.721,5.367-.054.494-.107.986-.164,1.479-.159,1.381-.324,2.81-.37,4.261q-.059,1.85-.037,3.592c-.011.61-.008,1.194.011,1.744a70.7,70.7,0,0,0,.374,8.548,82.928,82.928,0,0,0,2.141,11.551,38.616,38.616,0,0,0,2.7,6.855c.159.338.318.674.474,1.013a14.024,14.024,0,0,0,2.448,3.721c.346.371.7.733,1.051,1.1.556.572,1.079,1.111,1.579,1.682a47.445,47.445,0,0,0,3.538,3.509l.178.165a44.057,44.057,0,0,0,13.121,7.884c1.335.564,2.7,1.108,4.014,1.635.9.359,1.791.718,2.685,1.084a37,37,0,0,0,6.182,2.014,30.639,30.639,0,0,0,3.035.456c.31.036.619.072.929.111q.631.079,1.261.166c1.015.138,2.064.28,3.125.364.586.046,1.166.067,1.743.067a48.244,48.244,0,0,0,5.381-.4l.5-.056c1.731-.192,3.575-.461,5.635-.821,1.846-.323,3.652-.651,5.433-1.129,1.568-.421,3.123-.933,4.628-1.429q.724-.24,1.449-.476a31.917,31.917,0,0,0,7.362-3.114c2.234-1.41,4.408-2.927,6.239-4.225a31.593,31.593,0,0,0,2.849-2.357c1.078-.971,2-1.861,2.807-2.72,1.1-1.166,2.08-2.271,2.986-3.38a26.27,26.27,0,0,0,3.6-5.395c1.065-2.275,1.889-4.157,2.6-5.924a36.453,36.453,0,0,0,1.72-5.072c1.108-4.66,2.04-9.352,2.773-13.944a61.437,61.437,0,0,0,.758-7.393A54.2,54.2,0,0,0,535.8,554.791ZM431.415,570.658a58.038,58.038,0,0,1,.529-6.394c.124-.947.224-1.906.32-2.835.155-1.5.315-3.046.586-4.528a39.845,39.845,0,0,1,2.709-9.613l.256.006c1.344.032,2.736.064,4.108.057.728,0,1.46-.029,2.167-.055.649-.024,1.3-.048,1.948-.054.564-.007,1.124.016,1.718.039.409.015.818.031,1.227.037.868.014,1.735.021,2.6.029q.942.007,1.884.019c.392,0,.782.014,1.174.023.579.013,1.157.026,1.736.027,1.346,0,2.7-.008,4-.031.006.4.008.792.011,1.189.008,1.2.016,2.45.1,3.686a19.5,19.5,0,0,0,1.83,6.409,14.9,14.9,0,0,0,2.191,3.8c.207.242.421.456.625.664.123.124.246.247.364.374-.083,1.743-.163,3.326-.276,4.923-.024.326-.079.664-.137,1.024s-.117.718-.151,1.1c-.1,1.128-.176,2.3-.235,3.6-.022.466-.023.927-.024,1.374v.678c-.6.447-1.3.949-2.006,1.44s-1.447.989-2.171,1.48c-.682.464-1.366.926-2.045,1.4-.43.3-.862.589-1.3.882-1.221.826-2.483,1.681-3.683,2.6a28.609,28.609,0,0,0-2.237,1.975c-.3.286-.6.572-.911.851H444.44c-.425,0-.847.008-1.272.014-.66.01-1.345.02-2.006.008-.918-.018-1.861-.068-2.773-.116l-.413-.022c-.341-.406-.684-.825-1.018-1.249-.189-.238-.372-.481-.554-.722-.225-.3-.448-.593-.681-.882-.5-.619-.921-1.124-1.34-1.591-.568-.633-1.244-1.378-1.955-2.1a.756.756,0,0,1-.243-.447A57.2,57.2,0,0,1,431.415,570.658Zm102.859-4.232a59.153,59.153,0,0,1-.732,7.128c-.723,4.537-1.644,9.173-2.74,13.779a34.858,34.858,0,0,1-1.623,4.763c-.688,1.725-1.5,3.57-2.542,5.8a24.343,24.343,0,0,1-3.313,4.937c-.871,1.065-1.812,2.132-2.879,3.258-.77.815-1.648,1.664-2.681,2.6a29.749,29.749,0,0,1-2.646,2.2c-1.808,1.282-3.952,2.777-6.142,4.16a30.2,30.2,0,0,1-6.859,2.878c-.487.158-.974.319-1.462.478-1.474.487-3,.99-4.5,1.393-1.7.454-3.445.773-5.24,1.086-2.014.353-3.812.615-5.495.8l-.5.055a34.691,34.691,0,0,1-6.7.325c-1-.079-2.018-.217-3-.351q-.641-.087-1.282-.169c-.316-.04-.633-.076-.95-.113-.982-.114-1.91-.221-2.817-.418a34.842,34.842,0,0,1-5.811-1.9c-.9-.369-1.8-.729-2.7-1.091-1.309-.525-2.661-1.066-3.975-1.622a42.029,42.029,0,0,1-12.475-7.468l-.179-.165a45.274,45.274,0,0,1-3.375-3.343c-.538-.612-1.106-1.2-1.656-1.764-.342-.352-.685-.7-1.02-1.065a11.83,11.83,0,0,1-2.057-3.143q-.239-.51-.48-1.021a36.3,36.3,0,0,1-2.563-6.458,82.75,82.75,0,0,1-1.787-8.945c.224.247.451.5.653.72.389.437.79.912,1.261,1.5.219.273.43.552.639.83.194.256.385.512.584.762.421.532.851,1.058,1.284,1.563a1.577,1.577,0,0,0,1.107.514l.669.036c.93.05,1.892.1,2.847.119.237,0,.473.006.707.006.464,0,.925-.007,1.376-.014q.62-.011,1.243-.013h4.081a1.787,1.787,0,0,0,1.149-.447c.369-.332.729-.673,1.09-1.014a26.374,26.374,0,0,1,2.061-1.824c1.148-.881,2.383-1.718,3.577-2.526.437-.3.873-.592,1.309-.891q1.013-.7,2.032-1.385,1.1-.742,2.185-1.491c.842-.581,1.648-1.172,2.324-1.673a1.624,1.624,0,0,0,.637-1.216c.01-.353.011-.705.011-1.058,0-.441,0-.857.02-1.274.059-1.261.133-2.408.229-3.506.026-.3.076-.609.13-.937.063-.392.129-.8.16-1.224.12-1.678.2-3.331.288-5.163a1.867,1.867,0,0,0-.451-1.265c-.18-.206-.372-.4-.564-.595s-.36-.363-.511-.539a13.086,13.086,0,0,1-1.85-3.251,17.455,17.455,0,0,1-1.645-5.67c-.085-1.165-.092-2.372-.1-3.541q0-.788-.017-1.579v-2.126l-1.27.181c-.112.016-.227.036-.341.056a3.607,3.607,0,0,1-.513.068c-1.336.024-2.714.036-4.1.033-.563,0-1.126-.014-1.688-.027-.4-.009-.8-.018-1.2-.023q-.946-.012-1.892-.019c-.862-.008-1.725-.015-2.588-.029-.393-.006-.786-.021-1.178-.037-.593-.022-1.209-.046-1.821-.04-.67.006-1.34.03-2.01.055-.689.025-1.4.051-2.1.054-1.054,0-2.122-.015-3.177-.038.081-.133.15-.268.234-.4a7.563,7.563,0,0,0,.546-1.073c.064-.145.128-.29.2-.432q.089-.182.176-.366c.14-.3.273-.576.42-.827,1.156-1.971,2.5-4.262,3.845-6.494a8.592,8.592,0,0,1,.9-1.174c.743-.853,1.555-1.753,2.481-2.755.516-.557,1.036-1.087,1.548-1.573q.406-.388.806-.783a26.134,26.134,0,0,1,2.2-2.006c.751-.586,1.5-1.181,2.244-1.776a87.229,87.229,0,0,1,7.146-5.3c.577-.371,1.149-.751,1.719-1.132.977-.651,1.987-1.326,3-1.919a37.875,37.875,0,0,1,3.954-1.957c2.124-.926,3.759-1.582,5.3-2.123a33.215,33.215,0,0,1,8.044-1.842c.546-.05,1.094-.114,1.639-.178.99-.117,1.925-.227,2.864-.251,1.17-.029,2.255-.049,3.3-.049,1.326,0,2.574.032,3.821.114a39.5,39.5,0,0,1,7.055,1.314,26.144,26.144,0,0,1,6.771,2.649c.768.444,1.543.877,2.319,1.309,1.4.777,2.838,1.583,4.2,2.44a30.612,30.612,0,0,1,9.146,9.12c1.211,1.807,2.464,3.676,3.547,5.576.667,1.17,1.266,2.431,1.843,3.649.272.573.544,1.148.824,1.716.112.226.227.451.341.676.193.379.386.756.564,1.143.275.6.559,1.215.773,1.834q.18.52.367,1.039a28.766,28.766,0,0,1,1.023,3.256c.686,3.017,1.257,6.076,1.726,8.67a52.092,52.092,0,0,1,.662,11.24Z" transform="translate(-429.187 -508.458)" fill="#0f1615"/>
        <path id="Path_16" data-name="Path 16" d="M484.624,681.06a2.726,2.726,0,1,0-2.727-2.726A2.726,2.726,0,0,0,484.624,681.06Z" transform="translate(-465.797 -624.552)" fill="#0f1615"/>
        <circle id="Ellipse_3" data-name="Ellipse 3" cx="2.727" cy="2.727" r="2.727" transform="translate(5.477 51.054)" fill="#0f1615"/>
      </g>
      <g id="Group_41" data-name="Group 41" transform="translate(45.683 35.629)">
        <path id="Path_17" data-name="Path 17" d="M591.326,631.508A6.115,6.115,0,0,1,590,635.6a4.877,4.877,0,0,1-3.914,1.66q-.417,0-1.258-.047t-1.258-.047q-.449,0-.449.386,0,.48.094,1.43t.094,1.419q0,.24-.219.24-.637,0-1.91-.037t-1.91-.036a.267.267,0,0,1-.3-.3q0-1.159.036-3.481t.037-3.481q0-3.278-.282-6.889l-.01-.146q-.021-.2.313-.24.814-.1,3.59-.1,1.638,0,3.142.042a5.709,5.709,0,0,1,3.987,1.555A5.351,5.351,0,0,1,591.326,631.508Zm-4.164.167a2.122,2.122,0,0,0-2.369-2.432q-1.67,0-1.753.188a17.03,17.03,0,0,0-.073,2.411q0,.323.026.955t.026.955q0,.209,1.878.209A2.011,2.011,0,0,0,587.161,631.675Z" transform="translate(-578.748 -625.674)" fill="#0f1615"/>
        <path id="Path_18" data-name="Path 18" d="M635.2,637.321a13.524,13.524,0,0,1-.177,1.649,6.288,6.288,0,0,1-.334,1.555.388.388,0,0,1-.344.2,2.551,2.551,0,0,1-.313-.031q-.762-.1-4.446-.1-.8,0-2.39-.01t-2.38-.01q-.345,0-.344-.3,0-1.169.131-3.512t.13-3.512q0-1.19-.125-4.436-.031-.835-.115-2.495l-.01-.146q-.021-.24.261-.24.772,0,2.322.042t2.322.042q.762,0,2.3-.042t2.3-.042q.543,0,.626.407.052.24.162,1.456t.109,1.477q0,.22-.209.219-.062,0-.219-.01-2.777-.23-4.989-.23-.553,0-.678.261a3.269,3.269,0,0,0-.052.8,1.472,1.472,0,0,0,.209.94.9.9,0,0,0,.678.2q.1,0,.407-.016t.5-.016q1.315,0,2.662-.073l.574-.052a5.118,5.118,0,0,1,.564-.042q.251,0,.25.24a15.038,15.038,0,0,0-.188,1.6,16.694,16.694,0,0,0-.084,1.67q0,.209-.3.209l-.939-.1q-.6-.063-2.714-.063h-1.106q-.428,0-.5.209-.01.052-.011.647a3.074,3.074,0,0,0,.1,1.023q.177.4,1.336.47h1.524q.553,0,1.644-.1t1.634-.1Q635.2,636.945,635.2,637.321Z" transform="translate(-610.506 -625.674)" fill="#0f1615"/>
        <path id="Path_19" data-name="Path 19" d="M675.868,639.737q0,.188-.261.261a12,12,0,0,1-1.941.083,13.208,13.208,0,0,1-1.92-.083.563.563,0,0,1-.449-.47,3.994,3.994,0,0,0-.553-1.607,23.006,23.006,0,0,0-2.8-.073,8.252,8.252,0,0,0-1.889.094,2.871,2.871,0,0,0-.4,1.117q-.2.866-.48.939a17.574,17.574,0,0,1-2.38.083q-1.6,0-1.6-.3,0-.271,2.359-6.669,2.557-6.919,2.776-7.609.125-.4.292-.4.282,0,.871.052t.882.052q.282,0,.83-.037t.819-.036c.132,0,.254.115.365.344q.511,1.1,2.985,7.515Q675.868,639.456,675.868,639.737Zm-7.4-9.508q-.219.459-.741,1.993a10.8,10.8,0,0,0-.564,1.91q0,.188.626.209.323.021,1.064.021.689,0,.762-.167a.41.41,0,0,0,.021-.146,10.193,10.193,0,0,0-.48-1.9A14.78,14.78,0,0,0,668.468,630.229Z" transform="translate(-636.018 -625.104)" fill="#0f1615"/>
        <path id="Path_20" data-name="Path 20" d="M591.233,695.964a4.436,4.436,0,0,1-1.2,3.183q-1.368,1.451-4.8,1.451-.261,0-.751-.01h-.741a35.348,35.348,0,0,1-4.582-.157q-.3-.063-.3-.323,0-1.117.131-3.382t.13-3.392q0-1.211-.125-4.551-.031-.856-.115-2.568l-.01-.146q-.01-.2.329-.24t2.416-.042q3.329,0,3.893.021a8.1,8.1,0,0,1,3.789.835,3.616,3.616,0,0,1,1.618,3.35,2.737,2.737,0,0,1-.376,1.3,5.459,5.459,0,0,1-.71.981,2.528,2.528,0,0,1-.386.4q0,.073.271.229a2.822,2.822,0,0,1,1.148,1.326A4.085,4.085,0,0,1,591.233,695.964Zm-4.488-5.876a1.163,1.163,0,0,0-.9-1.19,6.134,6.134,0,0,0-1.649-.156q-1.127,0-1.127.167,0,.2-.036.6t-.037.6q0,1.044.177,1.169a4.312,4.312,0,0,0,1.326.094Q586.746,691.372,586.746,690.088Zm.313,5.834a1.257,1.257,0,0,0-.783-1.273,4.581,4.581,0,0,0-1.628-.209,4.88,4.88,0,0,0-1.462.1,7.023,7.023,0,0,0,.021,2.641,4.069,4.069,0,0,0,1.5.13,4.9,4.9,0,0,0,1.586-.177A1.177,1.177,0,0,0,587.058,695.922Z" transform="translate(-578.822 -667.252)" fill="#0f1615"/>
        <path id="Path_21" data-name="Path 21" d="M637.339,692.383a7.65,7.65,0,0,1-2.077,5.458,7.522,7.522,0,0,1-10.719-.021,8.154,8.154,0,0,1,0-10.9,7.449,7.449,0,0,1,10.7,0A7.677,7.677,0,0,1,637.339,692.383Zm-3.956-.021a3.924,3.924,0,0,0-.95-2.662,3.29,3.29,0,0,0-5.03.042,4.14,4.14,0,0,0-.063,5.3,3.364,3.364,0,0,0,5.062-.063A3.87,3.87,0,0,0,633.383,692.363Z" transform="translate(-609.105 -666.469)" fill="#0f1615"/>
        <path id="Path_22" data-name="Path 22" d="M684.517,688.833q0,.209-.229.208-.4,0-3.142-.156-.063,2.64-.063,3.684,0,1.232.1,3.705t.1,3.705q0,.2-.094.25a1.241,1.241,0,0,1-.292.052,15.033,15.033,0,0,1-1.837.083,14.4,14.4,0,0,1-1.89-.083.307.307,0,0,1-.292-.324q0-1.231.1-3.694t.1-3.7q0-.814-.084-3.632-2.087.209-3.329.209c-.111,0-.167-.034-.167-.1a6.073,6.073,0,0,1,.146-.8q.167-.73.188-.887.031-.49.073-.981.073-.783.25-.783c.014,0,.063,0,.146.01a42.159,42.159,0,0,0,5,.219q.94,0,3.465-.2l1.367-.1a.579.579,0,0,1,.24.026q.031.027.042.2,0,.282-.021.783-.021.553-.021.783a6.276,6.276,0,0,0,.067.767A6.268,6.268,0,0,1,684.517,688.833Z" transform="translate(-644.563 -667.062)" fill="#0f1615"/>
        <path id="Path_23" data-name="Path 23" d="M719.191,694.769a4.612,4.612,0,0,1-1.785,3.632,7.626,7.626,0,0,1-3.81,1.7,1.141,1.141,0,0,1-.136.01q-.24,0-1.064-1.466a6.322,6.322,0,0,1-.824-1.79q0-.115.156-.146a11.037,11.037,0,0,0,2-.584,1.725,1.725,0,0,0,1.085-1.607,2.456,2.456,0,0,0-.71-1.513q-1.232-1.419-1.336-1.576a4.252,4.252,0,0,1-.72-2.4,3.776,3.776,0,0,1,1.764-3.173,7.924,7.924,0,0,1,3.538-1.357c.077-.007.136-.01.177-.01q.157,0,.251.25.271.762,1.262,2.755a.244.244,0,0,1,.031.1c0,.118-.062.177-.187.177a2.107,2.107,0,0,1-.282-.031,2.114,2.114,0,0,0-.3-.031,2.474,2.474,0,0,0-1.315.344,1.228,1.228,0,0,0-.678,1.107,2.733,2.733,0,0,0,.751,1.565q1.326,1.67,1.388,1.753A4.194,4.194,0,0,1,719.191,694.769Z" transform="translate(-671.001 -666.35)" fill="#0f1615"/>
      </g>
      <g id="Group_42" data-name="Group 42" transform="translate(45.761 72.81)">
        <path id="Path_24" data-name="Path 24" d="M587.284,752.076c-.449-.319-.879-.349-1.123-.077a3.337,3.337,0,0,1-.748.55c-.5.3-1.066.647-1.135,1.309-.131,1.261-.823,1.288-1.938,1.226a.972.972,0,0,0-.316.044,1.205,1.205,0,0,1-.174.036.492.492,0,0,1,.015-.207c.017-.078.041-.155.064-.232a2.693,2.693,0,0,0,.09-.363c.013-.012.035-.029.051-.041a.444.444,0,0,0,.216-.343.46.46,0,0,0-.2-.344,1.044,1.044,0,0,0-.954-.247,1.245,1.245,0,0,0-.841.758l-.154.408a14.623,14.623,0,0,0-1.129,4.268,2.111,2.111,0,0,0,1.816,2.221,3.185,3.185,0,0,0,.518.042,4,4,0,0,0,3.453-2.1l.169-.338-.517.009c-.087,0-.168,0-.251,0a6.594,6.594,0,0,0-1.488.209,7.6,7.6,0,0,1-1.067.187c-.135.012-.387.031-.468-.044a.265.265,0,0,1-.046-.183,5.648,5.648,0,0,1,.432-2.064c.078-.19.266-.243.565-.313a2.05,2.05,0,0,0,.5-.162c.135-.071.273-.137.412-.2.221-.1.449-.213.665-.343.156-.094.26-.133.311-.12.025.007.1.049.207.273a1.917,1.917,0,0,0,1.168,1.04,1.515,1.515,0,0,0,1.227-.175,3.279,3.279,0,0,0,1.64-2.532A2.257,2.257,0,0,0,587.284,752.076Zm-1.2,2.848h0a.753.753,0,0,1-.158.107.283.283,0,0,1-.036-.152,1.144,1.144,0,0,1,.483-1.148,1.291,1.291,0,0,0,.157-.11A1.213,1.213,0,0,1,586.088,754.924Z" transform="translate(-579.004 -750.291)" fill="#0f1615"/>
        <path id="Path_25" data-name="Path 25" d="M712.833,752.988a1.148,1.148,0,0,0-1.554.445c-.364.607-.757,1.214-1.136,1.8a24.867,24.867,0,0,0-2.695,4.964l-.215.592.545-.315a13.849,13.849,0,0,0,4.9-4.572c.057-.091.117-.18.177-.269a3.728,3.728,0,0,0,.623-1.254A1.152,1.152,0,0,0,712.833,752.988Z" transform="translate(-668.067 -751.013)" fill="#0f1615"/>
        <path id="Path_26" data-name="Path 26" d="M646.116,756.813l.156-.232-.257-.108c-.068-.028-.129-.061-.185-.09a.775.775,0,0,0-.439-.131,1.052,1.052,0,0,1-.811-.141,1.008,1.008,0,0,1-.21-.769.543.543,0,0,0-.288-.544.865.865,0,0,0-.86.194,1.374,1.374,0,0,0-.432.925c-.065.48-.144.838-.575,1.056a.679.679,0,0,0-.415.6.623.623,0,0,0,.435.533c.239.1.226.166.172.445l-.108.579c-.123.659-.246,1.318-.36,1.979-.06.349-.221,1.276.75,1.472a1.3,1.3,0,0,0,.251.027.841.841,0,0,0,.486-.142,1.422,1.422,0,0,0,.486-.981l.009-.051c.174-1.009.355-2.052.445-3.092.049-.564.153-.809.669-.868A1.458,1.458,0,0,0,646.116,756.813Z" transform="translate(-622.62 -752.327)" fill="#0f1615"/>
        <path id="Path_27" data-name="Path 27" d="M612.11,765.288c-.694.363-.684.8-.553,1.1a.647.647,0,0,0,.636.434,1.813,1.813,0,0,0,.55-.113,28.206,28.206,0,0,0,3.624-1.461l.578-.28-.625-.148A5.822,5.822,0,0,0,612.11,765.288Z" transform="translate(-601.566 -759.19)" fill="#0f1615"/>
        <path id="Path_28" data-name="Path 28" d="M695.159,756.539a.843.843,0,0,0-.918.014.739.739,0,0,0-.3.9,5.186,5.186,0,0,0,1.549,2.089l.034.02a1.475,1.475,0,0,0,.6.174.516.516,0,0,0,.269-.069.692.692,0,0,0,.268-.578A3.807,3.807,0,0,0,695.159,756.539Z" transform="translate(-658.794 -753.485)" fill="#0f1615"/>
        <path id="Path_29" data-name="Path 29" d="M633.6,766.806l-.04.021h0a2.371,2.371,0,0,0-1.052,1.226c-.2.466-.372.95-.537,1.418l-.125.353c-.06.168-.243.68.168.916a.585.585,0,0,0,.3.083,1.02,1.02,0,0,0,.668-.37,3.722,3.722,0,0,0,.714-1.212c.082-.193.159-.376.261-.57l.114-.27q.171-.406.341-.812a.644.644,0,0,1,.069-.1.483.483,0,0,0,.01-.7A.722.722,0,0,0,633.6,766.806Z" transform="translate(-615.644 -760.587)" fill="#0f1615"/>
        <path id="Path_30" data-name="Path 30" d="M655.386,768.448c-.3-.45-.6-.893-.912-1.335-.182-.262-.364-.524-.543-.788l-.189.129h0l.185-.136c-.149-.218-.426-.624-.927-.376a.774.774,0,0,0-.4.941,5.136,5.136,0,0,0,1.778,2.443l.062.038a1.572,1.572,0,0,0,.573.144.6.6,0,0,0,.473-.205c.27-.305.036-.655-.076-.822Z" transform="translate(-630.093 -760.05)" fill="#0f1615"/>
        <path id="Path_31" data-name="Path 31" d="M703.9,757.479a.457.457,0,0,0,.242-.393,3.176,3.176,0,0,0-.467-2.459.911.911,0,0,0-1.027-.407.785.785,0,0,0-.619.909,3.048,3.048,0,0,0,1.315,2.233.765.765,0,0,0,.4.152A.37.37,0,0,0,703.9,757.479Z" transform="translate(-664.442 -751.94)" fill="#0f1615"/>
        <path id="Path_32" data-name="Path 32" d="M681.449,766.651a4.025,4.025,0,0,0-1.429,2.519l-.091.461.419-.212a4.254,4.254,0,0,0,1.5-1.411c.149-.2.29-.386.445-.56a.9.9,0,0,1,.095-.086.678.678,0,0,0,.3-.442.452.452,0,0,0-.129-.338C682.395,766.406,682.039,766.179,681.449,766.651Z" transform="translate(-649.102 -760.402)" fill="#0f1615"/>
        <path id="Path_33" data-name="Path 33" d="M667.472,746.838c-.284.036-.75.217-.679,1.02a2.338,2.338,0,0,0,1.031,1.578l.246.2.112-.3a2.962,2.962,0,0,0,.142-1.72C668.274,747.381,668.139,746.754,667.472,746.838Z" transform="translate(-639.973 -746.83)" fill="#0f1615"/>
        <path id="Path_34" data-name="Path 34" d="M661.339,748.106l-.039-.021a.776.776,0,0,0-.995.286,1.247,1.247,0,0,0,.053,1.517.9.9,0,0,0,.715.464.6.6,0,0,0,.244-.052c.414-.183.375-.63.353-.9l-.008-.108a1.59,1.59,0,0,1,.013-.248A.879.879,0,0,0,661.339,748.106Z" transform="translate(-635.312 -747.649)" fill="#0f1615"/>
        <path id="Path_35" data-name="Path 35" d="M674.914,764.065a.541.541,0,0,0-.589-.05.492.492,0,0,0-.26.577,2.8,2.8,0,0,0,.713,1.221l.031.024a.79.79,0,0,0,.393.143.367.367,0,0,0,.152-.032.461.461,0,0,0,.235-.366A2.056,2.056,0,0,0,674.914,764.065Z" transform="translate(-645.014 -758.721)" fill="#0f1615"/>
        <path id="Path_36" data-name="Path 36" d="M679.656,764.69a.3.3,0,0,0,.1-.016.346.346,0,0,0,.221-.268,1.764,1.764,0,0,0-.108-1.375.588.588,0,0,0-.623-.331.519.519,0,0,0-.467.547,1.693,1.693,0,0,0,.59,1.314A.473.473,0,0,0,679.656,764.69Z" transform="translate(-648.301 -757.848)" fill="#0f1615"/>
      </g>
    </g>
  </g>
</svg>
